<?xml version="1.0" standalone="no"?>
<!DOCTYPE svg PUBLIC "-//W3C//DTD SVG 20010904//EN"
 "http://www.w3.org/TR/2001/REC-SVG-20010904/DTD/svg10.dtd">
<svg version="1.0" xmlns="http://www.w3.org/2000/svg"
 width="700.000000pt" height="700.000000pt" viewBox="0 0 700.000000 700.000000"
 preserveAspectRatio="xMidYMid meet">
<metadata>
Created by potrace 1.11, written by Peter Selinger 2001-2013
</metadata>
<g transform="translate(0.000000,700.000000) scale(0.100000,-0.100000)"
fill="#000000" stroke="none">
<path d="M3072 6979 c-88 -7 -167 -22 -228 -46 -11 -4 -15 -2 -11 4 3 5 -37
-3 -91 -19 -53 -15 -109 -30 -125 -33 -328 -61 -523 -153 -544 -256 -3 -17
-26 -49 -55 -77 -27 -26 -59 -60 -71 -76 l-21 -29 40 26 c21 15 45 27 52 27
14 0 14 -3 -4 -67 -4 -15 -1 -22 13 -25 13 -3 3 -13 -37 -36 -60 -35 -97 -48
-108 -38 -3 4 7 18 23 31 25 20 27 24 13 30 -25 10 -65 -16 -163 -104 -50 -45
-95 -81 -101 -81 -11 0 -85 -97 -150 -195 -138 -212 -233 -439 -287 -685 -41
-185 -52 -295 -48 -489 l1 -55 30 29 30 29 1 -55 c0 -30 2 -63 5 -74 6 -30 -5
-65 -20 -65 -16 0 -26 21 -26 56 0 13 -4 24 -8 24 -13 0 -3 -80 15 -114 8 -17
23 -40 33 -51 21 -23 33 -84 20 -104 -6 -11 -16 -3 -39 34 -17 27 -31 53 -31
59 0 5 -3 7 -6 4 -6 -7 15 -91 25 -98 17 -13 70 -110 85 -155 17 -55 20 -96
11 -136 -5 -19 4 -50 35 -115 24 -49 46 -91 50 -94 4 -3 10 -15 14 -28 11 -34
24 -17 22 28 -1 22 0 40 3 40 3 0 22 -22 41 -50 34 -47 59 -63 61 -37 0 6 7
-5 14 -26 25 -67 106 -179 189 -262 102 -100 117 -113 262 -220 65 -49 121
-91 124 -95 3 -4 30 -14 60 -24 71 -23 182 -74 244 -113 41 -26 52 -29 63 -18
11 12 19 12 51 1 37 -14 39 -17 27 -48 -9 -23 36 -65 118 -112 34 -19 82 -49
107 -68 30 -22 70 -39 120 -50 41 -10 98 -23 126 -30 62 -14 93 -6 73 19 -13
15 -12 15 9 4 18 -10 22 -18 18 -36 -9 -37 3 -54 48 -65 82 -21 203 -64 306
-110 95 -42 284 -152 329 -190 64 -56 57 -54 80 -31 38 38 55 11 67 -109 1
-14 2 -28 3 -31 1 -3 19 -13 41 -22 37 -14 47 -29 41 -61 -1 -5 5 -4 13 4 14
10 16 10 17 -6 1 -11 3 -37 4 -59 5 -61 -21 -172 -56 -242 -31 -63 -141 -186
-205 -230 -44 -30 -148 -82 -175 -87 -13 -2 -44 -9 -69 -16 -50 -14 -190 -17
-264 -6 -115 16 -231 70 -304 140 -24 22 -40 33 -36 24 7 -21 -15 -25 -33 -7
-8 8 -17 6 -34 -9 l-22 -21 -17 22 c-27 34 -59 98 -71 139 -5 21 -19 42 -29
48 -24 13 -52 67 -74 142 -9 31 -21 60 -26 63 -13 8 -13 3 0 -30 9 -24 8 -26
-6 -21 -24 9 -59 -17 -74 -54 -10 -24 -15 -28 -21 -18 -11 20 -21 100 -23 178
l-2 65 -623 3 -624 2 6 -147 c3 -82 9 -164 12 -183 3 -19 13 -74 21 -122 48
-287 190 -598 371 -813 228 -271 542 -471 896 -571 37 -10 67 -24 67 -31 0 -7
10 -15 23 -17 31 -7 128 -17 155 -16 22 0 22 -1 8 -22 -21 -30 -20 -63 4 -114
28 -58 53 -78 78 -65 10 6 35 11 55 13 20 1 34 4 32 6 -2 3 -37 19 -76 36 -96
41 -101 58 -18 55 48 -2 73 -8 98 -25 30 -20 37 -22 50 -10 9 8 43 21 76 31
32 9 68 23 78 30 13 9 38 11 85 7 116 -10 374 -3 451 13 13 2 47 7 77 11 29 3
98 16 153 28 56 13 101 19 101 15 0 -5 18 -2 41 7 61 25 73 4 19 -35 -24 -17
-37 -31 -30 -31 19 0 4 -13 -53 -44 -69 -38 -163 -68 -231 -74 -56 -4 -61 -3
-81 22 -17 21 -30 27 -66 28 -60 1 -111 -11 -106 -25 2 -6 22 -16 45 -22 22
-5 43 -13 46 -16 4 -3 -46 -23 -110 -44 -87 -29 -134 -39 -185 -39 -53 -1 -65
-4 -56 -13 7 -6 23 -13 37 -15 14 -2 31 -7 38 -12 7 -4 19 -3 26 3 7 6 38 13
69 16 31 3 83 7 115 10 33 3 62 11 68 20 6 8 13 13 16 10 6 -6 61 -14 139 -19
37 -3 83 -8 103 -11 24 -5 36 -3 36 4 0 6 10 11 23 11 12 1 36 7 52 14 l30 14
-33 7 c-45 10 -31 22 83 70 50 21 110 48 134 61 47 25 62 24 41 -1 -19 -23 4
-18 45 9 30 20 44 24 83 20 75 -8 81 -12 52 -36 l-25 -21 25 8 c14 4 43 15 65
25 22 10 60 23 85 30 59 16 152 62 204 102 22 17 94 84 159 147 65 64 122 116
127 116 33 0 159 159 298 375 52 80 111 168 132 195 28 38 49 86 84 199 37
115 52 149 67 153 10 3 19 6 19 7 0 2 16 64 35 140 19 76 36 159 37 184 1 26
7 61 15 79 7 18 16 49 20 70 12 58 8 280 -5 353 -12 66 -18 98 -28 160 -3 19
-7 44 -9 55 -2 11 -4 28 -4 38 -1 11 -9 17 -26 17 -14 0 -26 5 -26 10 -1 6 -2
13 -3 18 -1 4 -6 23 -10 42 -16 68 -107 267 -142 309 -2 2 -11 -2 -20 -9 -19
-17 -17 -21 -96 135 -68 134 -113 209 -167 275 -20 24 -35 48 -33 53 5 16 -52
78 -117 126 -36 27 -120 79 -186 116 -66 37 -146 86 -177 110 -31 24 -79 54
-107 66 -28 12 -51 25 -51 29 0 15 -82 60 -139 76 -47 13 -61 22 -65 40 -6 23
-38 40 -56 29 -6 -3 -7 -17 -4 -30 5 -22 3 -23 -32 -18 -22 3 -45 14 -55 27
-9 12 -44 30 -78 40 -35 10 -69 28 -79 41 -12 15 -36 26 -77 33 -33 6 -72 14
-86 17 -73 14 -149 20 -169 13 -16 -6 -28 -4 -39 5 -19 17 -95 45 -131 49 -19
2 -26 10 -28 32 l-4 28 -83 -6 c-79 -6 -84 -5 -114 20 -36 30 -40 57 -11 70
15 7 -18 16 -135 39 -109 20 -154 33 -151 41 3 8 -18 20 -56 33 -59 20 -98 45
-98 63 0 5 -28 49 -61 99 -77 113 -98 168 -104 273 -4 66 -1 97 16 152 24 82
68 151 116 184 28 19 32 25 19 32 -28 15 -18 26 40 45 30 9 60 25 65 34 10 20
49 14 49 -7 0 -12 4 -12 24 1 13 9 60 20 104 25 44 5 97 16 117 24 46 19 64
21 47 4 -15 -15 -16 -32 -2 -23 6 4 22 8 35 11 29 5 36 -21 8 -30 -10 -3 1 -4
25 -2 57 6 108 41 129 92 l17 41 53 -24 c42 -19 63 -23 98 -19 37 5 46 3 54
-12 12 -23 5 -33 -17 -26 -10 3 -6 -3 8 -13 14 -10 58 -49 98 -88 41 -38 81
-74 91 -79 44 -25 88 -123 101 -226 21 -159 32 -217 40 -195 7 18 9 17 26 -12
19 -33 41 -41 129 -49 22 -2 58 -8 80 -13 57 -14 147 -24 240 -26 44 -1 90 -5
103 -8 62 -19 60 -19 54 8 -11 59 35 65 193 22 83 -22 205 -36 205 -23 0 3
-15 10 -32 15 l-33 9 32 1 c32 1 65 -9 266 -78 65 -22 141 -44 170 -47 l52 -7
-34 -9 c-18 -5 -32 -11 -30 -13 9 -8 160 -11 165 -3 3 5 -2 18 -12 29 -12 13
-15 23 -8 27 17 11 22 35 13 54 -13 25 6 31 26 8 24 -27 45 -25 46 3 6 113 3
128 -69 367 -73 241 -92 312 -92 340 -1 22 -2 23 -11 8 -5 -10 -13 -18 -18
-18 -8 0 -41 64 -46 90 -45 214 -70 287 -122 352 -21 26 -51 66 -68 89 -35 48
-153 161 -207 197 -22 14 -38 33 -38 44 0 75 -103 175 -270 262 -117 62 -160
95 -167 127 -5 27 -17 35 -102 76 -53 25 -113 52 -134 60 -32 13 -38 20 -35
41 3 24 -3 28 -77 55 -71 25 -89 27 -166 23 -88 -6 -106 -2 -89 19 10 12 -47
32 -155 55 -55 12 -184 11 -248 -1 -107 -22 -128 -21 -134 0 -3 13 -14 21 -27
22 -11 0 -30 2 -41 4 -11 2 -72 7 -135 10 -63 4 -117 8 -120 9 -3 1 -51 -1
-108 -5z m582 -1380 c-3 -5 6 -9 20 -9 39 0 71 -16 89 -44 11 -16 13 -24 5
-21 -15 5 -57 13 -118 21 -55 7 -58 10 -41 36 9 14 9 18 1 13 -11 -7 -29 10
-30 26 0 4 18 2 40 -3 22 -6 37 -14 34 -19z m-264 -1284 c0 -7 -23 -65 -25
-65 -6 0 -110 50 -105 50 68 9 95 13 98 14 2 3 32 3 32 1z m1470 -659 c91 -19
132 -38 144 -68 8 -18 36 -43 77 -69 35 -21 61 -39 58 -39 -4 0 -28 4 -55 9
-27 5 -76 13 -109 16 -33 4 -62 10 -65 14 -10 13 -173 131 -182 131 -4 0 -8 4
-8 8 0 10 90 8 140 -2z m664 -806 c9 -9 12 -238 3 -283 -10 -50 -18 -67 -31
-67 -7 0 -13 6 -13 13 -1 18 -13 77 -23 114 -8 31 -7 33 23 42 l32 9 -30 1
c-28 1 -32 6 -54 69 -34 97 -33 106 9 113 37 6 69 2 84 -11z m32 -897 c3 -25
-1 -35 -15 -43 -28 -15 -30 -13 -22 23 4 17 8 35 9 40 1 4 2 19 3 35 l0 27 10
-25 c6 -14 12 -39 15 -57z m-269 -795 c-9 -100 -83 -262 -145 -321 -24 -23
-36 -28 -59 -23 -24 5 -35 -1 -78 -47 -59 -62 -95 -105 -95 -113 0 -12 -83
-128 -104 -146 -34 -29 -144 -79 -176 -80 -45 -1 -60 17 -58 70 3 43 6 47 48
68 25 13 77 35 115 50 39 15 75 31 80 36 6 6 -8 3 -30 -6 l-40 -16 30 26 c17
15 52 45 80 68 199 166 357 338 413 451 9 19 19 35 21 35 2 0 1 -24 -2 -52z
m-2282 -837 c43 -9 25 -14 -40 -11 -53 2 -84 19 -35 19 19 0 53 -4 75 -8z"/>
</g>
</svg>
